/* XPM */
static char * weblearn_logo32_xpm[] = {
"32 32 85 1",
" 	c None",
".	c #0850A4",
"+	c #0A51A4",
"@	c #0C53A5",
"#	c #739CCB",
"$	c #CBDAEC",
"%	c #FFFFFF",
"&	c #FAFBFD",
"*	c #AAC3DF",
"=	c #2866AF",
"-	c #D6E2F0",
";	c #F7F9FC",
">	c #F60041",
",	c #FA7B9D",
"'	c #FEFEFE",
")	c #AEC5E1",
"!	c #BDD0E6",
"~	c #749CCB",
"{	c #EBF1F7",
"]	c #F3F9EE",
"^	c #73BA38",
"/	c #62B220",
"(	c #F95A84",
"_	c #FCF9FB",
":	c #5989C2",
"<	c #175BA9",
"[	c #D5E5D9",
"}	c #FCFDFB",
"|	c #D8ECC8",
"1	c #65B324",
"2	c #F72058",
"3	c #FEEFF3",
"4	c #FDC8D6",
"5	c #F71D56",
"6	c #155E90",
"7	c #9ECF75",
"8	c #D4EAC2",
"9	c #FEFBFC",
"0	c #F72159",
"a	c #DFEFD2",
"b	c #EDF6E5",
"c	c #F61651",
"d	c #F84070",
"e	c #E3F1D8",
"f	c #B4DA95",
"g	c #FDDDE5",
"h	c #FA789A",
"i	c #F6FBF3",
"j	c #9ACD6F",
"k	c #FCBACB",
"l	c #FDCED8",
"m	c #FA421D",
"n	c #FE7800",
"o	c #FFBA00",
"p	c #C2B60C",
"q	c #92C248",
"r	c #99CD6E",
"s	c #FFF7F1",
"t	c #FF7C07",
"u	c #FF7900",
"v	c #FFDA77",
"w	c #FFFEFE",
"x	c #FFC490",
"y	c #FFC21E",
"z	c #FFFCF4",
"A	c #FFF0C7",
"B	c #FFC18A",
"C	c #FFF8E7",
"D	c #FFF9EC",
"E	c #FFBF14",
"F	c #FF7B05",
"G	c #FFF8F2",
"H	c #FFD460",
"I	c #FFCEA2",
"J	c #FFA758",
"K	c #FF9230",
"L	c #FFBE0E",
"M	c #FFC837",
"N	c #FFDF88",
"O	c #FFE4CD",
"P	c #FFE4CC",
"Q	c #FFFAF6",
"R	c #FFF7E4",
"S	c #FF7A02",
"T	c #FFC529",
"                                ",
"             ......             ",
"            ........            ",
"           ....  ....           ",
"           ..      ..           ",
"          ...      +..          ",
"          @#$%%%%%%&*=          ",
"          -%%%%%%%%%%;%         ",
"    >>>>,'%%)!     ~{%%]^///    ",
"  >>>>>(%%_:..    ..<[}%|1////  ",
"  >>>>23%45 ........6/7%%8////  ",
" >>>  %%90>> ...... ///a%%  /// ",
" >>   %% >>>    .   /// %%%  // ",
">>>  %%%  >>        //   %%  ///",
">>>  %%%  >>        //   %%  ///",
" >>  %%  >>>        ///  %%% // ",
" >>> %% >>>>        //// %%b/// ",
"  >>c%%d>>>          ////e%f//  ",
"   >>g%h>>            ///i%j/   ",
"     k%lmn           oopq%%r    ",
"      %stuuuu      ooooov%w     ",
"      w%xuuuuu    oooooyz%A     ",
"     uB%%   uuu  ooo   C%DE     ",
"    uuFG%%   uuu oo   %%%Hoo    ",
"    uuu %%%% uuuooo  %%%%ooo    ",
"    uuu  %%%%IJKLMN%%%%% ooo    ",
"    uuu   %%%%%%%%%%%%   ooo    ",
"     uu     OPQ%%%RA     ooo    ",
"     uuuu  uuuS  Tooo  oooo     ",
"      uuuuuuuu    oooooooo      ",
"       uuuuuu      oooooo       ",
"                                "};
