<?xml version="1.0" encoding="UTF-8" standalone="no"?>
<!-- Created with Inkscape (http://www.inkscape.org/) -->

<svg
   xmlns:dc="http://purl.org/dc/elements/1.1/"
   xmlns:cc="http://creativecommons.org/ns#"
   xmlns:rdf="http://www.w3.org/1999/02/22-rdf-syntax-ns#"
   xmlns:svg="http://www.w3.org/2000/svg"
   xmlns="http://www.w3.org/2000/svg"
   xmlns:sodipodi="http://sodipodi.sourceforge.net/DTD/sodipodi-0.dtd"
   xmlns:inkscape="http://www.inkscape.org/namespaces/inkscape"
   width="744.09448819"
   height="1052.3622047"
   id="svg13453"
   version="1.1"
   inkscape:version="0.48.2 r9819"
   sodipodi:docname="New document 71">
  <defs
     id="defs13455" />
  <sodipodi:namedview
     id="base"
     pagecolor="#ffffff"
     bordercolor="#666666"
     borderopacity="1.0"
     inkscape:pageopacity="0.0"
     inkscape:pageshadow="2"
     inkscape:zoom="0.49497475"
     inkscape:cx="-218.616"
     inkscape:cy="344.62513"
     inkscape:document-units="px"
     inkscape:current-layer="layer1"
     showgrid="false"
     inkscape:window-width="1440"
     inkscape:window-height="855"
     inkscape:window-x="0"
     inkscape:window-y="26"
     inkscape:window-maximized="1" />
  <metadata
     id="metadata13458">
    <rdf:RDF>
      <cc:Work
         rdf:about="">
        <dc:format>image/svg+xml</dc:format>
        <dc:type
           rdf:resource="http://purl.org/dc/dcmitype/StillImage" />
        <dc:title></dc:title>
      </cc:Work>
    </rdf:RDF>
  </metadata>
  <g
     inkscape:label="Layer 1"
     inkscape:groupmode="layer"
     id="layer1">
    <g
       id="g13597"
       inkscape:export-xdpi="11.508168"
       inkscape:export-ydpi="11.508168"
       transform="matrix(0.56602165,0,0,0.86162768,-507.66892,83.651367)">
      <path
         transform="translate(1.4285715,0)"
         d="m -968.57143,632.36218 c 0,12.62365 -45.41107,22.85715 -101.42857,22.85715 -56.0175,0 -101.4286,-10.2335 -101.4286,-22.85715 0,-12.62365 45.4111,-22.85714 101.4286,-22.85714 56.0175,0 101.42857,10.23349 101.42857,22.85714 z"
         sodipodi:ry="22.857143"
         sodipodi:rx="101.42857"
         sodipodi:cy="632.36218"
         sodipodi:cx="-1070"
         id="path13545"
         style="fill:#ff6600;fill-opacity:1;fill-rule:nonzero;stroke:#d87544;stroke-width:4.4000001;stroke-linecap:round;stroke-linejoin:round;stroke-miterlimit:4;stroke-opacity:1;stroke-dasharray:none;stroke-dashoffset:0"
         sodipodi:type="arc" />
      <path
         d="m -968.57143,632.36218 c 0,12.62365 -45.41107,22.85715 -101.42857,22.85715 -56.0175,0 -101.4286,-10.2335 -101.4286,-22.85715 0,-12.62365 45.4111,-22.85714 101.4286,-22.85714 56.0175,0 101.42857,10.23349 101.42857,22.85714 z"
         sodipodi:ry="22.857143"
         sodipodi:rx="101.42857"
         sodipodi:cy="632.36218"
         sodipodi:cx="-1070"
         id="path13545-4"
         style="fill:#ff6600;fill-opacity:1;fill-rule:nonzero;stroke:#d87544;stroke-width:4.4000001;stroke-linecap:round;stroke-linejoin:round;stroke-miterlimit:4;stroke-opacity:1;stroke-dasharray:none;stroke-dashoffset:0"
         sodipodi:type="arc"
         transform="translate(1.4285715,-32.380971)" />
      <path
         d="m -968.57143,632.36218 c 0,12.62365 -45.41107,22.85715 -101.42857,22.85715 -56.0175,0 -101.4286,-10.2335 -101.4286,-22.85715 0,-12.62365 45.4111,-22.85714 101.4286,-22.85714 56.0175,0 101.42857,10.23349 101.42857,22.85714 z"
         sodipodi:ry="22.857143"
         sodipodi:rx="101.42857"
         sodipodi:cy="632.36218"
         sodipodi:cx="-1070"
         id="path13545-4-2"
         style="fill:#ff6600;fill-opacity:1;fill-rule:nonzero;stroke:#d87544;stroke-width:4.4000001;stroke-linecap:round;stroke-linejoin:round;stroke-miterlimit:4;stroke-opacity:1;stroke-dasharray:none;stroke-dashoffset:0"
         sodipodi:type="arc"
         transform="translate(1.4285715,-64.761925)" />
      <path
         d="m -968.57143,632.36218 c 0,12.62365 -45.41107,22.85715 -101.42857,22.85715 -56.0175,0 -101.4286,-10.2335 -101.4286,-22.85715 0,-12.62365 45.4111,-22.85714 101.4286,-22.85714 56.0175,0 101.42857,10.23349 101.42857,22.85714 z"
         sodipodi:ry="22.857143"
         sodipodi:rx="101.42857"
         sodipodi:cy="632.36218"
         sodipodi:cx="-1070"
         id="path13545-4-4"
         style="fill:#ff6600;fill-opacity:1;fill-rule:nonzero;stroke:#d87544;stroke-width:4.4000001;stroke-linecap:round;stroke-linejoin:round;stroke-miterlimit:4;stroke-opacity:1;stroke-dasharray:none;stroke-dashoffset:0"
         sodipodi:type="arc"
         transform="translate(1.4285715,-97.142861)" />
    </g>
  </g>
</svg>
