<?xml version="1.0" encoding="UTF-8" standalone="no"?>
<!-- Created with Inkscape (http://www.inkscape.org/) -->

<svg
   xmlns:dc="http://purl.org/dc/elements/1.1/"
   xmlns:cc="http://creativecommons.org/ns#"
   xmlns:rdf="http://www.w3.org/1999/02/22-rdf-syntax-ns#"
   xmlns:svg="http://www.w3.org/2000/svg"
   xmlns="http://www.w3.org/2000/svg"
   xmlns:sodipodi="http://sodipodi.sourceforge.net/DTD/sodipodi-0.dtd"
   xmlns:inkscape="http://www.inkscape.org/namespaces/inkscape"
   width="313.11215"
   height="320.50677"
   id="svg2"
   version="1.1"
   inkscape:version="0.48.3.1 r9886"
   sodipodi:docname="New document 1">
  <defs
     id="defs4" />
  <sodipodi:namedview
     id="base"
     pagecolor="#ffffff"
     bordercolor="#666666"
     borderopacity="1.0"
     inkscape:pageopacity="0.0"
     inkscape:pageshadow="2"
     inkscape:zoom="1.0158305"
     inkscape:cx="243.48068"
     inkscape:cy="90.888057"
     inkscape:document-units="px"
     inkscape:current-layer="layer1"
     showgrid="false"
     inkscape:window-width="1440"
     inkscape:window-height="850"
     inkscape:window-x="0"
     inkscape:window-y="0"
     inkscape:window-maximized="1"
     fit-margin-top="30"
     fit-margin-right="30"
     fit-margin-bottom="30"
     fit-margin-left="30" />
  <metadata
     id="metadata7">
    <rdf:RDF>
      <cc:Work
         rdf:about="">
        <dc:format>image/svg+xml</dc:format>
        <dc:type
           rdf:resource="http://purl.org/dc/dcmitype/StillImage" />
        <dc:title></dc:title>
      </cc:Work>
    </rdf:RDF>
  </metadata>
  <g
     inkscape:label="Layer 1"
     inkscape:groupmode="layer"
     id="layer1"
     transform="translate(-135.37068,-204.49803)">
    <path
       style="fill:#000000"
       d="m 301.34375,234.5 c -3.39317,0.0581 -6.70131,1.4121 -9.1875,4.125 -6.3063,6.88137 -6.66402,9.66459 -7.09375,54.6875 -0.32652,34.21032 -0.64408,40.84559 -1.9375,42.84375 -1.29448,1.9998 -1.71995,2.15505 -2.875,1 -0.75145,-0.75145 -5.9049,-13.26916 -11.4375,-27.84375 -12.48267,-32.88321 -18.64427,-45.6406 -25.5,-52.71875 -4.46876,-4.61374 -5.61328,-5.28425 -9.0625,-5.28125 -5.62454,0.005 -10.19341,3.15108 -12.65625,8.71875 -1.69536,3.83263 -1.93969,5.91289 -1.46875,11.71875 1.00979,12.44915 3.91586,21.46116 18,55.65625 10.80157,26.22526 13.34637,42.68716 8.8125,56.90625 -3.85951,12.10414 -10.8896,19.91383 -15.59375,17.28125 -0.89173,-0.49903 -8.03252,-7.24068 -15.84375,-14.96875 -16.32299,-16.14921 -22.76709,-20.24476 -33.34375,-21.09375 -5.13774,-0.41241 -6.76824,-0.12864 -9.65625,1.65625 -5.71569,3.53249 -8.21911,8.81584 -6.6875,14.15625 0.46527,1.6223 2.80922,5.55245 5.21875,8.71875 2.40952,3.16631 7.02644,9.25386 10.25,13.5625 3.22356,4.30865 9.64177,11.04485 14.25,14.96875 4.60823,3.9239 10.61958,10.09504 13.375,13.6875 6.29371,8.2056 37.72667,41.87268 44,47.125 6.77323,5.67088 20.73125,11.60494 33.90625,14.4375 9.57038,2.05757 28.52815,1.27832 37.5,-1.53125 14.94493,-4.68006 30.75199,-15.36514 39.84375,-26.9375 7.89677,-10.05133 13.5996,-24.34943 13.625,-34.15625 0.0148,-5.68939 3.52969,-25.69763 5.6875,-32.40625 2.12052,-6.59269 6.34336,-14.96774 12.03125,-23.8125 12.29387,-19.11717 25.32099,-56.07942 22.625,-64.21875 -1.41301,-4.26596 -6.62143,-7.46875 -12.15625,-7.46875 -4.1036,0 -4.97302,0.44239 -9.125,4.75 -4.21129,4.36913 -7.76354,9.99172 -21.34375,33.5625 -5.89652,10.23442 -13.21773,19.6875 -15.21875,19.6875 -3.39131,0 -0.61392,-13.49351 8.53125,-41.5 10.15717,-31.10569 13.12309,-48.46247 9.5,-55.46875 -4.29755,-8.31055 -15.28159,-10.4851 -22.46875,-4.4375 -3.21512,2.70534 -7.24527,14.08454 -19.5,54.75 -6.92959,22.99481 -9.63893,29.65625 -12.03125,29.65625 -2.96218,0 -4.2344,-5.27527 -4.90625,-20.5 -0.36407,-8.25 -1.10358,-21.075 -1.65625,-28.5 -0.55266,-7.425 -1.34796,-22.18432 -1.78125,-32.78125 -0.69319,-16.95308 -1.04959,-19.59536 -2.8125,-22 -2.96925,-4.05011 -7.44985,-6.10596 -11.8125,-6.03125 z"
       id="path3526"
       inkscape:connector-curvature="0" />
  </g>
</svg>
