<?xml version="1.0" encoding="UTF-8" standalone="no"?>
<!-- Created with Inkscape (http://www.inkscape.org/) -->
<svg
   xmlns:dc="http://purl.org/dc/elements/1.1/"
   xmlns:cc="http://web.resource.org/cc/"
   xmlns:rdf="http://www.w3.org/1999/02/22-rdf-syntax-ns#"
   xmlns:svg="http://www.w3.org/2000/svg"
   xmlns="http://www.w3.org/2000/svg"
   xmlns:sodipodi="http://inkscape.sourceforge.net/DTD/sodipodi-0.dtd"
   xmlns:inkscape="http://www.inkscape.org/namespaces/inkscape"
   width="470pt"
   height="470pt"
   id="svg1328"
   sodipodi:version="0.32"
   inkscape:version="0.43"
   version="1.0"
   sodipodi:docbase="/home/ceresna"
   sodipodi:docname="weblearn-logo.svg">
  <defs
     id="defs1330" />
  <sodipodi:namedview
     id="base"
     pagecolor="#ffffff"
     bordercolor="#666666"
     borderopacity="1.0"
     inkscape:pageopacity="0.0"
     inkscape:pageshadow="2"
     inkscape:zoom="0.35"
     inkscape:cx="375"
     inkscape:cy="520"
     inkscape:document-units="px"
     inkscape:current-layer="g1362"
     inkscape:window-width="750"
     inkscape:window-height="542"
     inkscape:window-x="518"
     inkscape:window-y="231" />
  <metadata
     id="metadata1333">
    <rdf:RDF>
      <cc:Work
         rdf:about="">
        <dc:format>image/svg+xml</dc:format>
        <dc:type
           rdf:resource="http://purl.org/dc/dcmitype/StillImage" />
      </cc:Work>
    </rdf:RDF>
  </metadata>
  <g
     inkscape:label="Layer 1"
     inkscape:groupmode="layer"
     id="layer1">
    <g
       style="display:inline"
       id="g1362"
       transform="matrix(1.815739,0,0,1.815739,107.1468,-637.474)">
      <g
         id="g2302"
         transform="translate(-43.66181,-75.31612)">
        <g
           id="g2290">
          <g
             style="display:inline"
             id="g2190"
             transform="matrix(0.550468,-1.729916e-2,1.729916e-2,0.550468,-87.84348,246.3465)">
            <path
               style="fill:#f60041;fill-opacity:1;fill-rule:evenodd;stroke:none;stroke-width:1px;stroke-linecap:butt;stroke-linejoin:miter;stroke-opacity:1"
               d="M 188.28125,484.15625 C 128.99529,484.90805 81.093749,533.25559 81.09375,592.71875 C 81.09375,652.65013 129.72476,701.31249 189.65625,701.3125 C 249.58774,701.3125 298.25001,652.65013 298.25,592.71875 C 298.25,532.78737 249.58773,484.15624 189.65625,484.15625 C 189.18804,484.15625 188.74807,484.15033 188.28125,484.15625 z M 188.4375,529.65625 C 188.84365,529.64852 189.24826,529.65625 189.65625,529.65625 C 224.47144,529.65625 252.75,557.90364 252.75,592.71875 C 252.75,627.53385 224.47143,655.8125 189.65625,655.8125 C 154.84107,655.81248 126.59375,627.53386 126.59375,592.71875 C 126.59375,558.31162 154.18518,530.30779 188.4375,529.65625 z "
               transform="translate(38.90045,-3.231715)"
               id="path1307" />
          </g>
          <g
             style="display:inline"
             id="g2194"
             transform="matrix(0.550468,-1.729916e-2,1.729916e-2,0.550468,11.04353,173.5114)">
            <path
               style="fill:#0850a4;fill-opacity:1;fill-rule:evenodd;stroke:none;stroke-width:1px;stroke-linecap:butt;stroke-linejoin:miter;stroke-opacity:1"
               d="M 89.6875,214.65625 C 30.40154,215.40805 -17.46875,263.75558 -17.46875,323.21875 C -17.46875,383.15013 31.162263,431.81251 91.09375,431.8125 C 151.02524,431.8125 199.65624,383.15012 199.65625,323.21875 C 199.65625,263.28737 151.02524,214.65626 91.09375,214.65625 C 90.625535,214.65625 90.154319,214.65033 89.6875,214.65625 z M 90.28125,260.15625 C 90.552433,260.15281 90.821756,260.15625 91.09375,260.15625 C 125.90893,260.15624 154.15625,288.40364 154.15625,323.21875 C 154.15625,358.03387 125.90893,386.3125 91.09375,386.3125 C 56.278565,386.3125 28.03125,358.03386 28.03125,323.21875 C 28.03125,288.67564 55.841062,260.59298 90.28125,260.15625 z "
               transform="translate(137.4821,266.2611)"
               id="path2196" />
          </g>
          <g
             style="display:inline"
             id="g2200"
             transform="matrix(0.550468,-1.729916e-2,1.729916e-2,0.550468,99.67453,260.7975)">
            <path
               style="fill:#62b220;fill-opacity:1;fill-rule:evenodd;stroke:none;stroke-width:1px;stroke-linecap:butt;stroke-linejoin:miter;stroke-opacity:1"
               d="M 244.29641,455.21101 C 185.01045,455.96281 137.14015,504.31035 137.14016,563.77351 C 137.14016,623.70489 185.77116,672.36725 245.70266,672.36726 C 305.63415,672.36726 354.2964,623.70489 354.29641,563.77351 C 354.29641,503.84213 305.63414,455.21102 245.70266,455.21101 C 245.23445,455.21101 244.76323,455.20509 244.29641,455.21101 z M 244.48391,500.71101 C 244.89006,500.70328 245.29467,500.71101 245.70266,500.71101 C 280.51783,500.71101 308.79641,528.9584 308.79641,563.77351 C 308.7964,598.58861 280.51784,626.83601 245.70266,626.83601 C 210.88746,626.83602 182.64016,598.58862 182.64016,563.77351 C 182.64015,529.36638 210.23159,501.36255 244.48391,500.71101 z "
               id="path2202" />
          </g>
          <g
             style="display:inline"
             id="g2208"
             transform="matrix(0.550468,-1.729916e-2,1.729916e-2,0.550468,71.8922,361.7613)">
            <path
               style="fill:#ffba00;fill-opacity:1;fill-rule:evenodd;stroke:none;stroke-width:1px;stroke-linecap:butt;stroke-linejoin:miter;stroke-opacity:1"
               d="M 511.375,350.40625 C 451.44351,350.40625 402.8125,399.06863 402.8125,459 C 402.8125,518.93138 451.44352,567.56252 511.375,567.5625 C 571.30649,567.5625 619.93748,518.93138 619.9375,459 C 619.9375,399.06862 571.30649,350.40624 511.375,350.40625 z M 511.375,395.90625 C 546.19019,395.90625 574.4375,424.18489 574.4375,459 C 574.43751,493.8151 546.19018,522.0625 511.375,522.0625 C 476.55982,522.06251 448.3125,493.81511 448.3125,459 C 448.3125,424.18488 476.55982,395.90625 511.375,395.90625 z "
               transform="translate(-282.802,130.503)"
               id="path2210" />
          </g>
          <g
             style="display:inline"
             id="g2214"
             transform="matrix(0.550468,-1.729916e-2,1.729916e-2,0.550468,-13.67052,359.049)">
            <path
               style="fill:#ff7900;fill-opacity:1;fill-rule:evenodd;stroke:none;stroke-width:1px;stroke-linecap:butt;stroke-linejoin:miter;stroke-opacity:1"
               d="M 402.15625,543.78125 C 342.54731,544.1592 294.28125,592.67771 294.28125,652.375 C 294.28125,712.30638 342.91226,760.93753 402.84375,760.9375 C 462.77524,760.9375 511.4375,712.30636 511.4375,652.375 C 511.4375,592.44362 462.77524,543.78125 402.84375,543.78125 C 402.60964,543.78125 402.39001,543.77977 402.15625,543.78125 z M 402.03125,589.28125 C 402.30243,589.27781 402.57176,589.28125 402.84375,589.28125 C 437.65894,589.28123 465.9375,617.55989 465.9375,652.375 C 465.93751,687.19014 437.65893,715.4375 402.84375,715.4375 C 368.02857,715.43752 339.78125,687.19011 339.78125,652.375 C 339.78125,617.83191 367.59106,589.71798 402.03125,589.28125 z "
               transform="translate(-239.9999,-60.01033)"
               id="path2216" />
          </g>
        </g>
        <path
           id="path1368"
           d="M 143.9752,481.75713 C 80.877133,484.54132 31.513789,537.63426 33.503455,600.94623 C 35.508781,664.75672 88.928641,714.90621 152.73916,712.90086 C 216.54969,710.89555 266.71521,657.49077 264.70989,593.68028 L 263.85336,582.83232 C 256.34263,523.28464 205.46357,479.82478 145.47369,481.71004 C 144.97518,481.72571 144.47202,481.73521 143.9752,481.75713 z M 146.21344,505.24902 C 193.98313,503.74779 234.49693,538.36798 240.4777,585.78565 L 241.15529,594.42052 C 242.75213,645.23265 202.81148,687.76505 151.99942,689.36189 C 101.18736,690.95871 58.654875,651.01815 57.058038,600.206 C 55.461197,549.39384 95.401381,506.84585 146.21344,505.24902 z "
           style="fill:#ffffff;fill-opacity:1;stroke:none" />
      </g>
    </g>
  </g>
</svg>
